<svg id="Capa_1" enable-background="new 0 0 511.968 511.968" height="512" viewBox="0 0 511.968 511.968" width="512" xmlns="http://www.w3.org/2000/svg"><g><g><path d="m271.76 501.714-26.323-78.97c-2.622-7.866 1.626-16.362 9.478-18.97 7.925-2.637 16.348 1.626 18.97 9.478l26.323 78.97c2.622 7.866-1.626 16.362-9.478 18.97-7.911 2.636-16.366-1.667-18.97-9.478z" fill="#ff9100"/></g><path d="m240.208 492.222-21.05-63.149c-1.39-4.164-4.457-7.198-8.174-8.848-3.29-1.459-7.081-1.855-10.796-.63-7.852 2.607-12.1 11.104-9.478 18.97l20.273 60.82.776 2.329c2.604 7.811 11.058 12.114 18.97 9.478 7.853-2.608 12.101-11.104 9.479-18.97z" fill="#fabe2c"/><path d="m230.73 511.191c7.852-2.607 12.1-11.104 9.478-18.97l-21.05-63.149c-1.39-4.164-4.457-7.198-8.174-8.848v79.16l.776 2.329c2.604 7.812 11.058 12.115 18.97 9.478z" fill="#ff9100"/><path d="m360.984 152.357-150 110.521-119.348 89.934-36.26 99.155h110.609c15.379 0 30.368-1.584 45-4.206 117.675-21.088 207.557-125.036 209.767-248.2z" fill="#fed843"/><path d="m420.752 199.562-59.767-47.205-150 110.521v184.884c117.674-21.089 207.556-125.036 209.767-248.2z" fill="#fabe2c"/><path d="m306.638.378c-53.011 4.596-94.995 53.253-95.654 110.786 0 .049-.015.097-.015.146-.439 43.301-23.862 84.053-62.666 108.984-73.462 47.198-117.319 129.457-117.319 216.674v60c0 6.958 4.79 12.993 11.558 14.604 6.953 1.604 13.826-1.811 16.86-7.896 2.986-5.971 33.836-67.672 32.109-64.219 14.458-28.901 42.773-47.49 72.275-47.49h.586c15.934.178 31.509-1.798 46.611-5.359 34.559-8.15 66.357-25.558 92.271-51.257 37.222-36.929 57.729-88.074 57.729-140.384v-42.61l24.243-126.01c-21.142-18.541-49.287-28.456-78.588-25.969z" fill="#704c55"/><path d="m360.984 194.968v-42.61l24.243-126.01c-21.143-18.541-49.288-28.456-78.589-25.97-53.011 4.596-94.995 53.253-95.654 110.786v275.444c34.559-8.15 66.357-25.558 92.271-51.257 37.221-36.928 57.729-88.074 57.729-140.383z" fill="#563941"/><path d="m465.984 89.968h-10.298c-20.21 0-36.739-11.58-43.374-26.821-6.292-14.495-15.725-26.838-27.085-36.799-11.451-7.09-24.816-11.38-39.243-11.38-41.353 0-75 33.647-75 75v15c0 57.891 47.109 105 105 105 16.071 0 31.135-3.922 44.767-10.406.027-1.544.233-3.043.233-4.594v-37.192c0-21.482 18.445-37.669 34.702-37.808h10.298c8.291 0 15-6.709 15-15s-6.709-15-15-15z" fill="#38211a"/><circle cx="345.984" cy="104.968" fill="#fabe2c" r="15"/></g></svg>